<mxfile host="app.diagrams.net" agent="Mozilla/5.0 (Windows NT 10.0; Win64; x64) AppleWebKit/537.36 (KHTML, like Gecko) Chrome/130.0.0.0 YaBrowser/24.12.0.0 Safari/537.36" version="26.0.6">
  <diagram name="Страница — 1" id="wz97MX_JEsX9pgFC1Q18">
    <mxGraphModel dx="2856" dy="2629" grid="1" gridSize="10" guides="1" tooltips="1" connect="1" arrows="1" fold="1" page="1" pageScale="1" pageWidth="1169" pageHeight="827" math="0" shadow="0">
      <root>
        <mxCell id="0" />
        <mxCell id="1" parent="0" />
        <mxCell id="d5_68GvQaejQoekDUdDX-72" value="" style="edgeStyle=orthogonalEdgeStyle;rounded=0;orthogonalLoop=1;jettySize=auto;html=1;exitX=0.5;exitY=1;exitDx=0;exitDy=0;endArrow=none;endFill=0;dashed=1;" edge="1" parent="1" source="d5_68GvQaejQoekDUdDX-9" target="d5_68GvQaejQoekDUdDX-71">
          <mxGeometry relative="1" as="geometry">
            <mxPoint x="1060" y="-70" as="targetPoint" />
            <mxPoint x="1060" y="-823" as="sourcePoint" />
          </mxGeometry>
        </mxCell>
        <mxCell id="d5_68GvQaejQoekDUdDX-2" value="User" style="shape=umlActor;verticalLabelPosition=bottom;verticalAlign=top;html=1;outlineConnect=0;" vertex="1" parent="1">
          <mxGeometry x="-15" y="-850" width="30" height="60" as="geometry" />
        </mxCell>
        <mxCell id="d5_68GvQaejQoekDUdDX-3" value="User" style="shape=umlActor;verticalLabelPosition=bottom;verticalAlign=top;html=1;outlineConnect=0;" vertex="1" parent="1">
          <mxGeometry x="-15" y="-10" width="30" height="60" as="geometry" />
        </mxCell>
        <mxCell id="d5_68GvQaejQoekDUdDX-13" style="edgeStyle=orthogonalEdgeStyle;rounded=0;orthogonalLoop=1;jettySize=auto;html=1;exitX=0.5;exitY=1;exitDx=0;exitDy=0;endArrow=none;endFill=0;dashed=1;" edge="1" parent="1" source="d5_68GvQaejQoekDUdDX-4">
          <mxGeometry relative="1" as="geometry">
            <mxPoint x="70" as="targetPoint" />
            <Array as="points">
              <mxPoint x="75" />
            </Array>
          </mxGeometry>
        </mxCell>
        <mxCell id="d5_68GvQaejQoekDUdDX-4" value=":main" style="rounded=0;whiteSpace=wrap;html=1;" vertex="1" parent="1">
          <mxGeometry x="50" y="-850" width="50" height="27" as="geometry" />
        </mxCell>
        <mxCell id="d5_68GvQaejQoekDUdDX-14" style="edgeStyle=orthogonalEdgeStyle;rounded=0;orthogonalLoop=1;jettySize=auto;html=1;exitX=0.5;exitY=1;exitDx=0;exitDy=0;dashed=1;endArrow=none;endFill=0;" edge="1" parent="1" source="d5_68GvQaejQoekDUdDX-15">
          <mxGeometry relative="1" as="geometry">
            <mxPoint x="190" as="targetPoint" />
          </mxGeometry>
        </mxCell>
        <mxCell id="d5_68GvQaejQoekDUdDX-5" value="app:FXapp" style="rounded=0;whiteSpace=wrap;html=1;" vertex="1" parent="1">
          <mxGeometry x="150" y="-850" width="80" height="27" as="geometry" />
        </mxCell>
        <mxCell id="d5_68GvQaejQoekDUdDX-17" style="edgeStyle=orthogonalEdgeStyle;rounded=0;orthogonalLoop=1;jettySize=auto;html=1;exitX=0.5;exitY=1;exitDx=0;exitDy=0;dashed=1;endArrow=none;endFill=0;" edge="1" parent="1" source="d5_68GvQaejQoekDUdDX-6">
          <mxGeometry relative="1" as="geometry">
            <mxPoint x="350" as="targetPoint" />
            <Array as="points">
              <mxPoint x="350" y="-129" />
            </Array>
          </mxGeometry>
        </mxCell>
        <mxCell id="d5_68GvQaejQoekDUdDX-6" value=":Student_List_View" style="rounded=0;whiteSpace=wrap;html=1;" vertex="1" parent="1">
          <mxGeometry x="290" y="-850" width="120" height="27" as="geometry" />
        </mxCell>
        <mxCell id="d5_68GvQaejQoekDUdDX-19" style="edgeStyle=orthogonalEdgeStyle;rounded=0;orthogonalLoop=1;jettySize=auto;html=1;exitX=0.5;exitY=1;exitDx=0;exitDy=0;dashed=1;endArrow=none;endFill=0;" edge="1" parent="1" source="d5_68GvQaejQoekDUdDX-7">
          <mxGeometry relative="1" as="geometry">
            <mxPoint x="565" as="targetPoint" />
          </mxGeometry>
        </mxCell>
        <mxCell id="d5_68GvQaejQoekDUdDX-7" value=":Student_List_Controller" style="rounded=0;whiteSpace=wrap;html=1;" vertex="1" parent="1">
          <mxGeometry x="490" y="-850" width="150" height="27" as="geometry" />
        </mxCell>
        <mxCell id="d5_68GvQaejQoekDUdDX-20" style="edgeStyle=orthogonalEdgeStyle;rounded=0;orthogonalLoop=1;jettySize=auto;html=1;exitX=0.5;exitY=1;exitDx=0;exitDy=0;endArrow=none;endFill=0;dashed=1;" edge="1" parent="1" source="d5_68GvQaejQoekDUdDX-42">
          <mxGeometry relative="1" as="geometry">
            <mxPoint x="900" as="targetPoint" />
          </mxGeometry>
        </mxCell>
        <mxCell id="d5_68GvQaejQoekDUdDX-8" value=":Student_List_Base" style="rounded=0;whiteSpace=wrap;html=1;" vertex="1" parent="1">
          <mxGeometry x="840" y="-850" width="120" height="27" as="geometry" />
        </mxCell>
        <mxCell id="d5_68GvQaejQoekDUdDX-21" style="edgeStyle=orthogonalEdgeStyle;rounded=0;orthogonalLoop=1;jettySize=auto;html=1;exitX=0.5;exitY=1;exitDx=0;exitDy=0;endArrow=none;endFill=0;dashed=1;" edge="1" parent="1">
          <mxGeometry relative="1" as="geometry">
            <mxPoint x="1059.76" y="-10" as="targetPoint" />
            <mxPoint x="1059.76" y="-40" as="sourcePoint" />
            <Array as="points">
              <mxPoint x="1059.76" />
            </Array>
          </mxGeometry>
        </mxCell>
        <mxCell id="d5_68GvQaejQoekDUdDX-9" value=":Data_List_Student_Short" style="rounded=0;whiteSpace=wrap;html=1;" vertex="1" parent="1">
          <mxGeometry x="980" y="-850" width="160" height="27" as="geometry" />
        </mxCell>
        <mxCell id="d5_68GvQaejQoekDUdDX-10" value="" style="rounded=0;whiteSpace=wrap;html=1;" vertex="1" parent="1">
          <mxGeometry x="-5" y="-750" width="10" height="730" as="geometry" />
        </mxCell>
        <mxCell id="d5_68GvQaejQoekDUdDX-11" value="" style="rounded=0;whiteSpace=wrap;html=1;" vertex="1" parent="1">
          <mxGeometry x="70" y="-730" width="10" height="160" as="geometry" />
        </mxCell>
        <mxCell id="d5_68GvQaejQoekDUdDX-16" value="" style="edgeStyle=orthogonalEdgeStyle;rounded=0;orthogonalLoop=1;jettySize=auto;html=1;exitX=0.5;exitY=1;exitDx=0;exitDy=0;dashed=1;endArrow=none;endFill=0;" edge="1" parent="1" source="d5_68GvQaejQoekDUdDX-5" target="d5_68GvQaejQoekDUdDX-15">
          <mxGeometry relative="1" as="geometry">
            <mxPoint x="190.16666666666674" y="-129.16666666666666" as="targetPoint" />
            <mxPoint x="190" y="-823" as="sourcePoint" />
          </mxGeometry>
        </mxCell>
        <mxCell id="d5_68GvQaejQoekDUdDX-15" value="" style="rounded=0;whiteSpace=wrap;html=1;" vertex="1" parent="1">
          <mxGeometry x="185" y="-700" width="10" height="40" as="geometry" />
        </mxCell>
        <mxCell id="d5_68GvQaejQoekDUdDX-18" value="" style="rounded=0;whiteSpace=wrap;html=1;" vertex="1" parent="1">
          <mxGeometry x="345" y="-680" width="10" height="660" as="geometry" />
        </mxCell>
        <mxCell id="d5_68GvQaejQoekDUdDX-22" value="" style="endArrow=classic;html=1;rounded=0;entryX=0;entryY=0;entryDx=0;entryDy=0;" edge="1" parent="1" target="d5_68GvQaejQoekDUdDX-11">
          <mxGeometry width="50" height="50" relative="1" as="geometry">
            <mxPoint x="5" y="-730" as="sourcePoint" />
            <mxPoint x="60" y="-690" as="targetPoint" />
          </mxGeometry>
        </mxCell>
        <mxCell id="d5_68GvQaejQoekDUdDX-23" value="run" style="text;html=1;align=center;verticalAlign=middle;resizable=0;points=[];autosize=1;strokeColor=none;fillColor=none;" vertex="1" parent="1">
          <mxGeometry x="10" y="-752" width="40" height="30" as="geometry" />
        </mxCell>
        <mxCell id="d5_68GvQaejQoekDUdDX-24" value="" style="endArrow=classic;html=1;rounded=0;" edge="1" parent="1">
          <mxGeometry width="50" height="50" relative="1" as="geometry">
            <mxPoint x="81" y="-695" as="sourcePoint" />
            <mxPoint x="180" y="-695" as="targetPoint" />
          </mxGeometry>
        </mxCell>
        <mxCell id="d5_68GvQaejQoekDUdDX-25" value="new()" style="text;html=1;align=center;verticalAlign=middle;resizable=0;points=[];autosize=1;strokeColor=none;fillColor=none;" vertex="1" parent="1">
          <mxGeometry x="105" y="-722" width="50" height="30" as="geometry" />
        </mxCell>
        <mxCell id="d5_68GvQaejQoekDUdDX-26" value="" style="endArrow=open;html=1;rounded=0;entryX=1;entryY=0.5;entryDx=0;entryDy=0;exitX=0;exitY=0.75;exitDx=0;exitDy=0;dashed=1;endFill=0;" edge="1" parent="1">
          <mxGeometry width="50" height="50" relative="1" as="geometry">
            <mxPoint x="185" y="-664" as="sourcePoint" />
            <mxPoint x="80" y="-664" as="targetPoint" />
          </mxGeometry>
        </mxCell>
        <mxCell id="d5_68GvQaejQoekDUdDX-27" value="return" style="text;html=1;align=center;verticalAlign=middle;resizable=0;points=[];autosize=1;strokeColor=none;fillColor=none;" vertex="1" parent="1">
          <mxGeometry x="102" y="-687" width="50" height="30" as="geometry" />
        </mxCell>
        <mxCell id="d5_68GvQaejQoekDUdDX-28" value="" style="endArrow=classic;html=1;rounded=0;exitX=0.04;exitY=0.736;exitDx=0;exitDy=0;exitPerimeter=0;" edge="1" parent="1" source="d5_68GvQaejQoekDUdDX-30">
          <mxGeometry width="50" height="50" relative="1" as="geometry">
            <mxPoint x="250" y="-600" as="sourcePoint" />
            <mxPoint x="346" y="-635" as="targetPoint" />
          </mxGeometry>
        </mxCell>
        <mxCell id="d5_68GvQaejQoekDUdDX-30" value="new(app)" style="text;html=1;align=center;verticalAlign=middle;resizable=0;points=[];autosize=1;strokeColor=none;fillColor=none;" vertex="1" parent="1">
          <mxGeometry x="80" y="-657" width="70" height="30" as="geometry" />
        </mxCell>
        <mxCell id="d5_68GvQaejQoekDUdDX-31" value="" style="endArrow=classic;html=1;rounded=0;entryX=0.1;entryY=0.111;entryDx=0;entryDy=0;entryPerimeter=0;" edge="1" parent="1" target="d5_68GvQaejQoekDUdDX-18">
          <mxGeometry width="50" height="50" relative="1" as="geometry">
            <mxPoint x="81" y="-606" as="sourcePoint" />
            <mxPoint x="340" y="-606" as="targetPoint" />
          </mxGeometry>
        </mxCell>
        <mxCell id="d5_68GvQaejQoekDUdDX-32" value="app.create()" style="text;html=1;align=center;verticalAlign=middle;resizable=0;points=[];autosize=1;strokeColor=none;fillColor=none;" vertex="1" parent="1">
          <mxGeometry x="76" y="-629" width="90" height="30" as="geometry" />
        </mxCell>
        <mxCell id="d5_68GvQaejQoekDUdDX-34" value="" style="endArrow=classic;html=1;rounded=0;exitX=1.072;exitY=0.952;exitDx=0;exitDy=0;exitPerimeter=0;entryX=0.1;entryY=0.155;entryDx=0;entryDy=0;entryPerimeter=0;" edge="1" parent="1" source="d5_68GvQaejQoekDUdDX-11" target="d5_68GvQaejQoekDUdDX-18">
          <mxGeometry width="50" height="50" relative="1" as="geometry">
            <mxPoint x="180" y="-510" as="sourcePoint" />
            <mxPoint x="340" y="-578" as="targetPoint" />
          </mxGeometry>
        </mxCell>
        <mxCell id="d5_68GvQaejQoekDUdDX-35" value="app.run()" style="text;html=1;align=center;verticalAlign=middle;resizable=0;points=[];autosize=1;strokeColor=none;fillColor=none;" vertex="1" parent="1">
          <mxGeometry x="82" y="-601" width="70" height="30" as="geometry" />
        </mxCell>
        <mxCell id="d5_68GvQaejQoekDUdDX-36" value="" style="endArrow=classic;html=1;rounded=0;exitX=0.883;exitY=0.242;exitDx=0;exitDy=0;exitPerimeter=0;entryX=-0.186;entryY=0.241;entryDx=0;entryDy=0;entryPerimeter=0;" edge="1" parent="1">
          <mxGeometry width="50" height="50" relative="1" as="geometry">
            <mxPoint x="353.8299999999999" y="-567.74" as="sourcePoint" />
            <mxPoint x="558.1399999999999" y="-568.27" as="targetPoint" />
          </mxGeometry>
        </mxCell>
        <mxCell id="d5_68GvQaejQoekDUdDX-38" value="" style="rounded=0;whiteSpace=wrap;html=1;" vertex="1" parent="1">
          <mxGeometry x="560" y="-680" width="10" height="550" as="geometry" />
        </mxCell>
        <mxCell id="d5_68GvQaejQoekDUdDX-39" value="new()" style="text;html=1;align=center;verticalAlign=middle;resizable=0;points=[];autosize=1;strokeColor=none;fillColor=none;" vertex="1" parent="1">
          <mxGeometry x="430" y="-591" width="50" height="30" as="geometry" />
        </mxCell>
        <mxCell id="d5_68GvQaejQoekDUdDX-40" value="" style="endArrow=open;html=1;rounded=0;exitX=-0.1;exitY=0.482;exitDx=0;exitDy=0;exitPerimeter=0;entryX=0.7;entryY=0.402;entryDx=0;entryDy=0;dashed=1;endFill=0;entryPerimeter=0;" edge="1" parent="1" source="d5_68GvQaejQoekDUdDX-38" target="d5_68GvQaejQoekDUdDX-18">
          <mxGeometry width="50" height="50" relative="1" as="geometry">
            <mxPoint x="563.03" y="-413" as="sourcePoint" />
            <mxPoint x="355" y="-411.93000000000006" as="targetPoint" />
          </mxGeometry>
        </mxCell>
        <mxCell id="d5_68GvQaejQoekDUdDX-41" value="return" style="text;html=1;align=center;verticalAlign=middle;resizable=0;points=[];autosize=1;strokeColor=none;fillColor=none;" vertex="1" parent="1">
          <mxGeometry x="430" y="-443" width="50" height="30" as="geometry" />
        </mxCell>
        <mxCell id="d5_68GvQaejQoekDUdDX-43" value="" style="edgeStyle=orthogonalEdgeStyle;rounded=0;orthogonalLoop=1;jettySize=auto;html=1;exitX=0.5;exitY=1;exitDx=0;exitDy=0;endArrow=none;endFill=0;dashed=1;" edge="1" parent="1" source="d5_68GvQaejQoekDUdDX-8" target="d5_68GvQaejQoekDUdDX-42">
          <mxGeometry relative="1" as="geometry">
            <mxPoint x="900.166666666667" y="-129.16666666666666" as="targetPoint" />
            <mxPoint x="900" y="-823" as="sourcePoint" />
          </mxGeometry>
        </mxCell>
        <mxCell id="d5_68GvQaejQoekDUdDX-42" value="" style="rounded=0;whiteSpace=wrap;html=1;" vertex="1" parent="1">
          <mxGeometry x="895" y="-670" width="10" height="530" as="geometry" />
        </mxCell>
        <mxCell id="d5_68GvQaejQoekDUdDX-44" value="" style="rounded=0;whiteSpace=wrap;html=1;" vertex="1" parent="1">
          <mxGeometry x="1055" y="-670" width="10" height="530" as="geometry" />
        </mxCell>
        <mxCell id="d5_68GvQaejQoekDUdDX-45" value="" style="endArrow=classic;html=1;rounded=0;exitX=1.5;exitY=0.228;exitDx=0;exitDy=0;exitPerimeter=0;entryX=0;entryY=0.218;entryDx=0;entryDy=0;entryPerimeter=0;" edge="1" parent="1" source="d5_68GvQaejQoekDUdDX-38" target="d5_68GvQaejQoekDUdDX-42">
          <mxGeometry width="50" height="50" relative="1" as="geometry">
            <mxPoint x="650" y="-520" as="sourcePoint" />
            <mxPoint x="700" y="-570" as="targetPoint" />
          </mxGeometry>
        </mxCell>
        <mxCell id="d5_68GvQaejQoekDUdDX-46" value="new()" style="text;html=1;align=center;verticalAlign=middle;resizable=0;points=[];autosize=1;strokeColor=none;fillColor=none;" vertex="1" parent="1">
          <mxGeometry x="678" y="-585" width="50" height="30" as="geometry" />
        </mxCell>
        <mxCell id="d5_68GvQaejQoekDUdDX-47" value="" style="endArrow=open;html=1;rounded=0;exitX=0.5;exitY=0.277;exitDx=0;exitDy=0;exitPerimeter=0;entryX=0.2;entryY=0.284;entryDx=0;entryDy=0;entryPerimeter=0;dashed=1;endFill=0;" edge="1" parent="1" source="d5_68GvQaejQoekDUdDX-42" target="d5_68GvQaejQoekDUdDX-38">
          <mxGeometry width="50" height="50" relative="1" as="geometry">
            <mxPoint x="843" y="-519" as="sourcePoint" />
            <mxPoint x="640" y="-520" as="targetPoint" />
          </mxGeometry>
        </mxCell>
        <mxCell id="d5_68GvQaejQoekDUdDX-48" value="return" style="text;html=1;align=center;verticalAlign=middle;resizable=0;points=[];autosize=1;strokeColor=none;fillColor=none;" vertex="1" parent="1">
          <mxGeometry x="675" y="-550" width="50" height="30" as="geometry" />
        </mxCell>
        <mxCell id="d5_68GvQaejQoekDUdDX-49" value="" style="endArrow=classic;html=1;rounded=0;exitX=1.5;exitY=0.228;exitDx=0;exitDy=0;exitPerimeter=0;" edge="1" parent="1">
          <mxGeometry width="50" height="50" relative="1" as="geometry">
            <mxPoint x="570" y="-490" as="sourcePoint" />
            <mxPoint x="1050" y="-490" as="targetPoint" />
          </mxGeometry>
        </mxCell>
        <mxCell id="d5_68GvQaejQoekDUdDX-52" value="new()" style="text;html=1;align=center;verticalAlign=middle;resizable=0;points=[];autosize=1;strokeColor=none;fillColor=none;" vertex="1" parent="1">
          <mxGeometry x="680" y="-510" width="50" height="30" as="geometry" />
        </mxCell>
        <mxCell id="d5_68GvQaejQoekDUdDX-53" value="" style="endArrow=open;html=1;rounded=0;exitX=0.5;exitY=0.394;exitDx=0;exitDy=0;exitPerimeter=0;entryX=1.1;entryY=0.4;entryDx=0;entryDy=0;entryPerimeter=0;dashed=1;endFill=0;" edge="1" parent="1" source="d5_68GvQaejQoekDUdDX-44" target="d5_68GvQaejQoekDUdDX-38">
          <mxGeometry width="50" height="50" relative="1" as="geometry">
            <mxPoint x="915" y="-460" as="sourcePoint" />
            <mxPoint x="585" y="-460" as="targetPoint" />
          </mxGeometry>
        </mxCell>
        <mxCell id="d5_68GvQaejQoekDUdDX-54" value="return" style="text;html=1;align=center;verticalAlign=middle;resizable=0;points=[];autosize=1;strokeColor=none;fillColor=none;" vertex="1" parent="1">
          <mxGeometry x="683" y="-483" width="50" height="30" as="geometry" />
        </mxCell>
        <mxCell id="d5_68GvQaejQoekDUdDX-55" value="" style="endArrow=classic;html=1;rounded=0;exitX=1.5;exitY=0.228;exitDx=0;exitDy=0;exitPerimeter=0;" edge="1" parent="1">
          <mxGeometry width="50" height="50" relative="1" as="geometry">
            <mxPoint x="570" y="-428.5" as="sourcePoint" />
            <mxPoint x="1050" y="-428" as="targetPoint" />
          </mxGeometry>
        </mxCell>
        <mxCell id="d5_68GvQaejQoekDUdDX-56" value="add_observer()" style="text;html=1;align=center;verticalAlign=middle;resizable=0;points=[];autosize=1;strokeColor=none;fillColor=none;" vertex="1" parent="1">
          <mxGeometry x="665" y="-453" width="100" height="30" as="geometry" />
        </mxCell>
        <mxCell id="d5_68GvQaejQoekDUdDX-57" value="" style="endArrow=classic;html=1;rounded=0;exitX=0.883;exitY=0.242;exitDx=0;exitDy=0;exitPerimeter=0;entryX=0.2;entryY=0.569;entryDx=0;entryDy=0;entryPerimeter=0;" edge="1" parent="1" target="d5_68GvQaejQoekDUdDX-38">
          <mxGeometry width="50" height="50" relative="1" as="geometry">
            <mxPoint x="352.8499999999999" y="-369.47" as="sourcePoint" />
            <mxPoint x="560" y="-370" as="targetPoint" />
          </mxGeometry>
        </mxCell>
        <mxCell id="d5_68GvQaejQoekDUdDX-58" value="refresh_data" style="text;html=1;align=center;verticalAlign=middle;resizable=0;points=[];autosize=1;strokeColor=none;fillColor=none;" vertex="1" parent="1">
          <mxGeometry x="365" y="-392" width="90" height="30" as="geometry" />
        </mxCell>
        <mxCell id="d5_68GvQaejQoekDUdDX-59" value="" style="endArrow=classic;html=1;rounded=0;exitX=1.5;exitY=0.228;exitDx=0;exitDy=0;exitPerimeter=0;entryX=0;entryY=0.209;entryDx=0;entryDy=0;entryPerimeter=0;" edge="1" parent="1">
          <mxGeometry width="50" height="50" relative="1" as="geometry">
            <mxPoint x="575" y="-350" as="sourcePoint" />
            <mxPoint x="895" y="-350" as="targetPoint" />
          </mxGeometry>
        </mxCell>
        <mxCell id="d5_68GvQaejQoekDUdDX-60" value="get_k_n_students_short" style="text;html=1;align=center;verticalAlign=middle;resizable=0;points=[];autosize=1;strokeColor=none;fillColor=none;" vertex="1" parent="1">
          <mxGeometry x="649" y="-373" width="150" height="30" as="geometry" />
        </mxCell>
        <mxCell id="d5_68GvQaejQoekDUdDX-61" value="" style="endArrow=open;html=1;rounded=0;exitX=0.5;exitY=0.277;exitDx=0;exitDy=0;exitPerimeter=0;entryX=1;entryY=0.296;entryDx=0;entryDy=0;entryPerimeter=0;dashed=1;endFill=0;" edge="1" parent="1">
          <mxGeometry width="50" height="50" relative="1" as="geometry">
            <mxPoint x="900" y="-313" as="sourcePoint" />
            <mxPoint x="570" y="-313" as="targetPoint" />
          </mxGeometry>
        </mxCell>
        <mxCell id="d5_68GvQaejQoekDUdDX-62" value="return" style="text;html=1;align=center;verticalAlign=middle;resizable=0;points=[];autosize=1;strokeColor=none;fillColor=none;" vertex="1" parent="1">
          <mxGeometry x="686" y="-340" width="50" height="30" as="geometry" />
        </mxCell>
        <mxCell id="d5_68GvQaejQoekDUdDX-63" value="" style="endArrow=classic;html=1;rounded=0;exitX=1.5;exitY=0.228;exitDx=0;exitDy=0;exitPerimeter=0;" edge="1" parent="1">
          <mxGeometry width="50" height="50" relative="1" as="geometry">
            <mxPoint x="570" y="-280" as="sourcePoint" />
            <mxPoint x="1050" y="-279.5" as="targetPoint" />
          </mxGeometry>
        </mxCell>
        <mxCell id="d5_68GvQaejQoekDUdDX-64" value="data=(data:[])" style="text;html=1;align=center;verticalAlign=middle;resizable=0;points=[];autosize=1;strokeColor=none;fillColor=none;" vertex="1" parent="1">
          <mxGeometry x="610" y="-302" width="100" height="30" as="geometry" />
        </mxCell>
        <mxCell id="d5_68GvQaejQoekDUdDX-65" value="" style="endArrow=classic;html=1;rounded=0;exitX=1.5;exitY=0.228;exitDx=0;exitDy=0;exitPerimeter=0;entryX=0;entryY=0.819;entryDx=0;entryDy=0;entryPerimeter=0;" edge="1" parent="1" target="d5_68GvQaejQoekDUdDX-42">
          <mxGeometry width="50" height="50" relative="1" as="geometry">
            <mxPoint x="570" y="-237" as="sourcePoint" />
            <mxPoint x="890" y="-237" as="targetPoint" />
          </mxGeometry>
        </mxCell>
        <mxCell id="d5_68GvQaejQoekDUdDX-66" value="get_student_short_count" style="text;html=1;align=center;verticalAlign=middle;resizable=0;points=[];autosize=1;strokeColor=none;fillColor=none;" vertex="1" parent="1">
          <mxGeometry x="639" y="-260" width="160" height="30" as="geometry" />
        </mxCell>
        <mxCell id="d5_68GvQaejQoekDUdDX-67" value="" style="endArrow=open;html=1;rounded=0;exitX=0.5;exitY=0.277;exitDx=0;exitDy=0;exitPerimeter=0;dashed=1;endFill=0;" edge="1" parent="1">
          <mxGeometry width="50" height="50" relative="1" as="geometry">
            <mxPoint x="895" y="-203" as="sourcePoint" />
            <mxPoint x="570" y="-203" as="targetPoint" />
          </mxGeometry>
        </mxCell>
        <mxCell id="d5_68GvQaejQoekDUdDX-68" value="return" style="text;html=1;align=center;verticalAlign=middle;resizable=0;points=[];autosize=1;strokeColor=none;fillColor=none;" vertex="1" parent="1">
          <mxGeometry x="681" y="-230" width="50" height="30" as="geometry" />
        </mxCell>
        <mxCell id="d5_68GvQaejQoekDUdDX-69" value="" style="endArrow=classic;html=1;rounded=0;exitX=0.9;exitY=0.916;exitDx=0;exitDy=0;exitPerimeter=0;entryX=0.1;entryY=0.934;entryDx=0;entryDy=0;entryPerimeter=0;" edge="1" parent="1" source="d5_68GvQaejQoekDUdDX-38" target="d5_68GvQaejQoekDUdDX-44">
          <mxGeometry width="50" height="50" relative="1" as="geometry">
            <mxPoint x="570" y="-170" as="sourcePoint" />
            <mxPoint x="1050" y="-176" as="targetPoint" />
          </mxGeometry>
        </mxCell>
        <mxCell id="d5_68GvQaejQoekDUdDX-70" value="" style="endArrow=classic;html=1;rounded=0;exitX=1.2;exitY=0.973;exitDx=0;exitDy=0;exitPerimeter=0;entryX=0;entryY=0.991;entryDx=0;entryDy=0;entryPerimeter=0;" edge="1" parent="1" source="d5_68GvQaejQoekDUdDX-38" target="d5_68GvQaejQoekDUdDX-44">
          <mxGeometry width="50" height="50" relative="1" as="geometry">
            <mxPoint x="575" y="-140" as="sourcePoint" />
            <mxPoint x="1055" y="-139.5" as="targetPoint" />
          </mxGeometry>
        </mxCell>
        <mxCell id="d5_68GvQaejQoekDUdDX-71" value="" style="rounded=0;whiteSpace=wrap;html=1;strokeColor=default;fillColor=default;" vertex="1" parent="1">
          <mxGeometry x="1055" y="-140" width="10" height="110" as="geometry" />
        </mxCell>
        <mxCell id="d5_68GvQaejQoekDUdDX-73" value="" style="rounded=0;whiteSpace=wrap;html=1;fillColor=default;strokeColor=none;imageWidth=20;imageHeight=20;" vertex="1" parent="1">
          <mxGeometry x="1055" y="-144" width="10" height="10" as="geometry" />
        </mxCell>
        <mxCell id="d5_68GvQaejQoekDUdDX-74" value="count=(count:int)" style="text;html=1;align=center;verticalAlign=middle;resizable=0;points=[];autosize=1;strokeColor=none;fillColor=none;" vertex="1" parent="1">
          <mxGeometry x="610" y="-200" width="110" height="30" as="geometry" />
        </mxCell>
        <mxCell id="d5_68GvQaejQoekDUdDX-75" value="notify" style="text;html=1;align=center;verticalAlign=middle;resizable=0;points=[];autosize=1;strokeColor=none;fillColor=none;" vertex="1" parent="1">
          <mxGeometry x="645" y="-167" width="50" height="30" as="geometry" />
        </mxCell>
        <mxCell id="d5_68GvQaejQoekDUdDX-78" value="" style="endArrow=classic;html=1;rounded=0;exitX=-0.018;exitY=0.334;exitDx=0;exitDy=0;exitPerimeter=0;entryX=0.629;entryY=0.867;entryDx=0;entryDy=0;entryPerimeter=0;" edge="1" parent="1" source="d5_68GvQaejQoekDUdDX-71" target="d5_68GvQaejQoekDUdDX-18">
          <mxGeometry width="50" height="50" relative="1" as="geometry">
            <mxPoint x="970" y="-117" as="sourcePoint" />
            <mxPoint x="360" y="-110" as="targetPoint" />
          </mxGeometry>
        </mxCell>
        <mxCell id="d5_68GvQaejQoekDUdDX-79" value="" style="endArrow=classic;html=1;rounded=0;entryX=0.914;entryY=0.955;entryDx=0;entryDy=0;entryPerimeter=0;exitX=0;exitY=0.5;exitDx=0;exitDy=0;" edge="1" parent="1">
          <mxGeometry width="50" height="50" relative="1" as="geometry">
            <mxPoint x="1055" y="-56.5" as="sourcePoint" />
            <mxPoint x="354" y="-63.5" as="targetPoint" />
          </mxGeometry>
        </mxCell>
        <mxCell id="d5_68GvQaejQoekDUdDX-80" value="set_table_params" style="text;html=1;align=center;verticalAlign=middle;resizable=0;points=[];autosize=1;strokeColor=none;fillColor=none;" vertex="1" parent="1">
          <mxGeometry x="630" y="-131" width="120" height="30" as="geometry" />
        </mxCell>
        <mxCell id="d5_68GvQaejQoekDUdDX-81" value="set_table_data" style="text;html=1;align=center;verticalAlign=middle;resizable=0;points=[];autosize=1;strokeColor=none;fillColor=none;" vertex="1" parent="1">
          <mxGeometry x="640" y="-86" width="100" height="30" as="geometry" />
        </mxCell>
        <mxCell id="d5_68GvQaejQoekDUdDX-82" value="" style="endArrow=classic;html=1;rounded=0;exitX=0;exitY=1;exitDx=0;exitDy=0;entryX=1;entryY=1;entryDx=0;entryDy=0;" edge="1" parent="1" source="d5_68GvQaejQoekDUdDX-18" target="d5_68GvQaejQoekDUdDX-10">
          <mxGeometry width="50" height="50" relative="1" as="geometry">
            <mxPoint x="220" y="-10" as="sourcePoint" />
            <mxPoint x="40" as="targetPoint" />
          </mxGeometry>
        </mxCell>
        <mxCell id="d5_68GvQaejQoekDUdDX-83" value="Display data to user" style="text;html=1;align=center;verticalAlign=middle;resizable=0;points=[];autosize=1;strokeColor=none;fillColor=none;" vertex="1" parent="1">
          <mxGeometry x="45" y="-46" width="130" height="30" as="geometry" />
        </mxCell>
        <mxCell id="d5_68GvQaejQoekDUdDX-84" value=":main" style="rounded=0;whiteSpace=wrap;html=1;" vertex="1" parent="1">
          <mxGeometry x="49" width="50" height="27" as="geometry" />
        </mxCell>
        <mxCell id="d5_68GvQaejQoekDUdDX-85" value="app:FXapp" style="rounded=0;whiteSpace=wrap;html=1;" vertex="1" parent="1">
          <mxGeometry x="155" width="80" height="27" as="geometry" />
        </mxCell>
        <mxCell id="d5_68GvQaejQoekDUdDX-87" value=":Student_List_View" style="rounded=0;whiteSpace=wrap;html=1;" vertex="1" parent="1">
          <mxGeometry x="290" width="120" height="27" as="geometry" />
        </mxCell>
        <mxCell id="d5_68GvQaejQoekDUdDX-88" value=":Student_List_Controller" style="rounded=0;whiteSpace=wrap;html=1;" vertex="1" parent="1">
          <mxGeometry x="495" width="150" height="27" as="geometry" />
        </mxCell>
        <mxCell id="d5_68GvQaejQoekDUdDX-89" value=":Student_List_Base" style="rounded=0;whiteSpace=wrap;html=1;" vertex="1" parent="1">
          <mxGeometry x="840" width="120" height="27" as="geometry" />
        </mxCell>
        <mxCell id="d5_68GvQaejQoekDUdDX-90" value=":Data_List_Student_Short" style="rounded=0;whiteSpace=wrap;html=1;" vertex="1" parent="1">
          <mxGeometry x="990" width="160" height="27" as="geometry" />
        </mxCell>
      </root>
    </mxGraphModel>
  </diagram>
</mxfile>
